<svg xmlns="http://www.w3.org/2000/svg" width="133.572" height="120.82" viewBox="0 0 133.572 120.82">
  <path id="Path_13" data-name="Path 13" d="M1240.968,714.2l-8.267-4.128-11.773,7.021h-9.481l-6.985,12.1,4.041,10.154,12.424,2.626,20.04-27.776-29.52,46.71,21.253-14.233,17.011,16.809,14.827,7.117-6.591-21.343-25.246-2.583,25.246,2.583L1232.7,729.19l31.838-14.995L1232.7,729.19l25.246,20.065,15.56-20.065-15.56,20.065,6.591,21.343-14.827-7.117L1232.7,746.672l-21.253,14.233,9.481,39.329,8.934,6.281,11.105-20.574,36.381,14.294L1264.538,770.6l-23.57,15.342-29.52-25.035-2.944,21.221,2.944,13.93-2.944,14.253,36.8-3.794,32.05-6.281,5.219,20.635,6.516-34.928,13.39,10.116,25.91-4.58-25.91,4.58-13.39-10.116-6.516,34.928-5.219-20.635-32.05,6.281,15.812,16.762L1245.3,806.515l-36.8,3.794,21.359,10.56,15.436,5.019,15.812-2.61,9.8,2.61,57.476-34.411-45.816,29.392,32.23-4.634,10.511,7.042,7.725-7.042-4.65-24.759,4.65-5.536L1314.8,768.259l13.586-4.778-3.075-11.518,5.5-12.619-10.485-10.154-15.1,3.861h-8.008L1286.37,714.2v37.768L1264.538,714.2l8.968,14.995-8.968,41.408,21.832-18.635v8.942h0l10.838,7.354-28.777,11.477,20.653,6.2,8.125-17.681H1314.8l-17.589-35.208h8.008l15.1-3.861-17.846-12.1-16.1-2.893-9.021-4.128-12.811,4.128-9.652-4.128Z" transform="translate(-1201.962 -707.568)" fill="#fff510" stroke="#ddd400" stroke-linejoin="round" stroke-width="5"/>
</svg>
