<svg xmlns="http://www.w3.org/2000/svg" width="134.206" height="121.535" viewBox="0 0 134.206 121.535">
  <g id="Group_11" data-name="Group 11" transform="translate(-1201.678 -707.221)">
    <path id="Path_13" data-name="Path 13" d="M1240.968,714.2l-8.267-4.128-11.773,7.021h-9.481l-6.985,12.1,4.041,10.154-4.041,12.619,6.985,8.942,2.283,10.627-5.227,10.594,2.944,13.93-2.944,14.253,8.626,10.56h12.733l15.436,5.019,15.812-2.61,9.8,2.61,25.5-9.652,9.992,4.634h8.159l10.751,2.408,7.725-7.042-4.65-15.347v-9.411l-3.075-16.042,3.075-11.954-3.075-11.518,5.5-12.619-10.485-10.154-8.967-2.768-8.879-9.334-16.1-2.893-9.021-4.128-12.811,4.128-9.652-4.128Z" fill="#fff510" stroke="#ddd400" stroke-width="5"/>
    <path id="Path_14" data-name="Path 14" d="M1241.017,713.866l-3.924,17.41-15.75-13.394,39.184,104.654-48.681-27.46,75.582-12.73,37.9-30.606L1296.576,816.3,1276.153,744.9l-15.625,34.407,9.188,46.951,41.33-97.7-19.837,23.18-15.056-6.841L1214.217,773.1l22.876-41.829,65.437-13.394L1276.153,744.9l-39.06-13.622,27.012-17.41,61.222,108.67" fill="none" stroke="#ddd402" stroke-linejoin="round" stroke-width="5"/>
  </g>
</svg>
