<svg xmlns="http://www.w3.org/2000/svg" width="134.206" height="121.29" viewBox="0 0 134.206 121.29">
  <path id="Path_13" data-name="Path 13" d="M1240.968,714.2l-8.267-4.128-11.773,7.021h-9.481l-6.985,12.1,4.041,10.154-4.041,12.619,6.985,8.942,2.283,10.627-5.227,10.594,2.944,13.93-2.944,14.253,8.626,10.56h12.733l15.436,5.019,15.812-2.61,9.8,2.61,25.5-9.652,9.992,4.634h8.159l10.751,2.408,7.725-7.042-4.65-15.347v-9.411l-3.075-16.042,3.075-11.954-3.075-11.518,5.5-12.619-10.485-10.154-8.967-2.768-8.879-9.334-16.1-2.893-9.021-4.128-12.811,4.128-9.652-4.128Z" transform="translate(-1201.678 -707.221)" fill="#fff510" stroke="#ddd400" stroke-width="5"/>
</svg>
